<?xml version="1.0" encoding="utf-8"?>
<!-- Generator: Adobe Illustrator 21.1.0, SVG Export Plug-In . SVG Version: 6.00 Build 0)  -->
<svg version="1.1" id="Calque_1" xmlns="http://www.w3.org/2000/svg" xmlns:xlink="http://www.w3.org/1999/xlink" x="0px" y="0px"
	 viewBox="0 0 841.9 595.3" style="enable-background:new 0 0 841.9 595.3;" xml:space="preserve">
<style type="text/css">
	.st0{fill:#3B3A3A;}
	.st1{fill:#EA68A2;}
	.st2{fill:#020203;}
</style>
<g>
	<path class="st0" d="M222.9,365.4c2.1,2,3.2,4.5,3.2,7.6s-1,5.7-3.1,7.7c-2.1,2-5.2,3-9.4,3h-7v15h-4.8v-36.3h11.8
		C217.6,362.4,220.8,363.4,222.9,365.4z M206.5,379.9h7c2.6,0,4.6-0.6,5.8-1.8c1.3-1.2,1.9-2.9,1.9-5c0-4.6-2.6-6.9-7.7-6.9h-7
		V379.9z"/>
	<path class="st0" d="M273.4,383.7v15h-4.8v-36.3h11.8c4.1,0,7.2,1,9.3,3c2.1,2,3.2,4.4,3.2,7.3s-0.8,5.3-2.4,7.2
		c-1.6,1.9-3.9,3.1-7.1,3.6l10,15.2h-6l-9.5-15H273.4z M273.4,366.2v13.7h7c2.6,0,4.6-0.6,5.8-1.8c1.3-1.2,1.9-2.9,1.9-5
		c0-4.6-2.6-6.9-7.7-6.9H273.4z"/>
	<path class="st0" d="M356.8,362.4v3.8h-14.4v12.3h12.9v3.7h-12.9v12.7h14.4v3.8h-19.2v-36.3H356.8z"/>
	<path class="st0" d="M437.6,362.4v36.3h-4.8v-26.4l-12.1,26.4h-3.1l-12.2-26.4v26.4h-4.8v-36.3h4.9l13.7,29.7l13.6-29.7H437.6z"/>
	<path class="st0" d="M482.1,398.7v-36.3h4.8v36.3H482.1z"/>
	<path class="st0" d="M531.3,385.9v-23.5h4.8v23.5c0,3,0.8,5.2,2.4,6.7c1.6,1.5,3.8,2.2,6.6,2.2s5-0.7,6.6-2.2
		c1.6-1.5,2.4-3.7,2.4-6.7v-23.5h4.8v23.5c0,4.3-1.3,7.5-3.9,9.7c-2.6,2.2-5.9,3.3-9.9,3.3c-4,0-7.3-1.1-9.9-3.3
		C532.6,393.4,531.3,390.2,531.3,385.9z"/>
	<path class="st0" d="M640.2,362.4v36.3h-4.8v-26.4l-12.1,26.4h-3.1L608,372.2v26.4h-4.8v-36.3h4.9l13.7,29.7l13.6-29.7H640.2z"/>
</g>
<g>
	<path class="st0" d="M83.1,198.1v-12.2H6v147.3h14.3v-67.9h53v-12.2h-53v-55H83.1z M525.5,316.7c-28,0-49.3-22.7-49.3-59.2
		c0-36.7,21.4-59.4,49.3-59.4c21.7,0,36.7,11.6,43.8,30.3h15c-9.1-26.9-30.3-42.5-58.8-42.5c-35.4,0-62.5,29.5-62.5,71.6
		c0,42.1,27,71.4,62.5,71.4c28.5,0,49.7-15.6,58.8-42.1h-15C562.3,305.1,547.3,316.7,525.5,316.7z M120.8,240
		c-25.3,0-42.3,18.1-42.3,45.1c0,27,17,45.1,42.3,45.1c20.1,0,35.2-11.2,39.5-29.2l0.4-1.6h-13.9l-0.3,0.9
		c-3,11.3-12.7,18.1-25.7,18.1c-13.4,0-27.4-8.6-28.9-27.9h69.2l0.1-1.1c0.3-3,0.3-5.3,0.3-8.7C161.5,256.7,144.8,240,120.8,240z
		 M91.9,279.1c1.6-16.6,12.6-27.3,28.4-27.3c8.2,0,15.5,2.9,20.6,8c4.7,4.8,7.2,11.4,7.3,19.3H91.9z M210.4,240
		c-25.3,0-42.3,18.1-42.3,45.1c0,27,17,45.1,42.3,45.1c20.1,0,35.2-11.2,39.5-29.2l0.4-1.6h-13.9l-0.3,0.9
		c-3.1,11.3-12.7,18.1-25.8,18.1c-13.4,0-27.4-8.6-28.8-27.9h69.2l0.1-1.1c0.3-3,0.3-5.3,0.3-8.7C251.2,256.7,234.4,240,210.4,240z
		 M181.6,279.1c1.6-16.6,12.6-27.3,28.4-27.3c8.2,0,15.5,2.9,20.6,8c4.7,4.8,7.2,11.4,7.3,19.3H181.6z M303.3,239.7
		c-12.5,0-21.8,4.5-27.4,13v-11.4h-13.2V329h13.2v-48.9c0-17.6,8.2-26.5,24.5-26.5h4.2v-13.9H303.3z M312.4,241.2V329h13.3v-87.7
		H312.4z M379.3,240c-25.3,0-42.3,18.1-42.3,45.1c0,27,17,45.1,42.3,45.1c20.1,0,35.2-11.2,39.5-29.2l0.4-1.6h-13.9l-0.3,0.9
		c-3,11.3-12.7,18.1-25.8,18.1c-13.4,0-27.4-8.6-28.8-27.9h69.2l0.1-1.1c0.3-3,0.3-5.3,0.3-8.7C420.1,256.7,403.3,240,379.3,240z
		 M350.5,279.1c1.6-16.6,12.6-27.3,28.4-27.3c8.2,0,15.5,2.9,20.6,8c4.7,4.8,7.2,11.4,7.3,19.3H350.5z M660.3,241.2v15
		c-5.5-8.5-16.1-16.3-31.9-16.3c-24.3,0-41.3,18.5-41.3,45c0,26.6,16.9,45.3,41.1,45.3c15.8,0,26.4-7.9,32-16.5V329h13.2v-87.7
		H660.3z M630.4,318.2c-17.8,0-29.8-13.4-29.8-33.2c0-20,11.7-32.9,29.8-32.9c17.6,0,29.9,13.6,29.9,33.1
		C660.3,304.5,648,318.2,630.4,318.2z M712.6,284.9l40.9-43.7H735l-31.9,36V211h-13.3v118h13.3v-36.2l32.6,36.2h18L712.6,284.9z
		 M795.2,240c-25.3,0-42.3,18.1-42.3,45.1c0,27,17,45.1,42.3,45.1c20.1,0,35.2-11.2,39.5-29.2l0.4-1.6h-13.9l-0.3,0.9
		c-3,11.3-12.7,18.1-25.7,18.1c-13.4,0-27.4-8.6-28.9-27.9h69.2l0.1-1.1c0.3-3,0.3-5.3,0.3-8.7C836,256.7,819.2,240,795.2,240z
		 M766.4,279.1c1.6-16.6,12.6-27.3,28.4-27.3c8.2,0,15.5,2.9,20.6,8c4.7,4.8,7.2,11.4,7.3,19.3H766.4z M137.4,203.9
		c0,0-20.4,17.4-35.3,18.5v7.6c0,0,12.6,0.8,40.1-19.1L137.4,203.9z"/>
	<path class="st1" d="M329.1,203.2c-2.4-2.2-5.6-3.6-9.1-3.6c-7.5,0-13.5,6-13.5,13.5c0,3,1,5.7,2.6,8c-2.7-2.5-4.4-6-4.4-9.9
		c0-7.5,6-13.5,13.5-13.5C322.6,197.7,326.6,199.8,329.1,203.2z"/>
	<path class="st1" d="M331.7,211.2c0,7.5-6.1,13.5-13.5,13.5c-3.6,0-6.8-1.4-9.2-3.6c-1.6-2.2-2.6-5-2.6-8c0-7.5,6.1-13.5,13.5-13.5
		c3.5,0,6.7,1.3,9.1,3.6C330.7,205.4,331.7,208.2,331.7,211.2z"/>
	<path class="st2" d="M333.5,213.1c0,7.5-6,13.5-13.5,13.5c-4.5,0-8.5-2.2-10.9-5.5c2.4,2.2,5.6,3.6,9.2,3.6c7.5,0,13.5-6,13.5-13.5
		c0-3-1-5.8-2.6-8C331.8,205.6,333.5,209.2,333.5,213.1z"/>
</g>
</svg>
